# xmcd
#
# Track frame offsets:
#	150
#	4183
#	24840
#	42198
#	59726
#	77358
#	95074
#	100714
#	120109
#	136556
#	153032
#	164563
#	184190
#	202549
#	212188
#	232199
#	259922
#
# Disc length: 3473 seconds
#
# Revision: 0
# Processed by: cddbd v1.5.2PL0 Copyright (c) Steve Scherf et al.
# Submitted via: EasyCDDAExtractor 11.0.2.1
#
DISCID=cf0d8f11
DTITLE=Cheri Dennis - In And Out Of Love
DYEAR=2008
DGENRE=R&B
TTITLE0=Intro
TTITLE1=I Love You
TTITLE2=Portrait Of Love
TTITLE3=Remind You
TTITLE4=All I Wanna Do
TTITLE5=Alright
TTITLE6=In And Out Of Love (Interlude)
TTITLE7=Dropping Out Of Love
TTITLE8=Pretend
TTITLE9=Spaced Out
TTITLE10=Act Like You Know
TTITLE11=Showndown
TTITLE12=Ooh Ooh
TTITLE13=Finally Made It (Interlude)
TTITLE14=Caught Up
TTITLE15=Waiting
TTITLE16=Outro
EXTD=
EXTT0=
EXTT1=
EXTT2=
EXTT3=
EXTT4=
EXTT5=
EXTT6=
EXTT7=
EXTT8=
EXTT9=
EXTT10=
EXTT11=
EXTT12=
EXTT13=
EXTT14=
EXTT15=
EXTT16=
PLAYORDER=
